<svg width="264" height="90" viewBox="0 0 264 90" fill="none" xmlns="http://www.w3.org/2000/svg">
<path fill-rule="evenodd" clip-rule="evenodd" d="M21.1703 11.9152L13.5381 23.556L5.72154 36.2403C5.24341 37.0162 5.79915 38.0178 6.70777 38.0178H22.1389C22.7795 38.0178 23.2987 37.4964 23.2987 36.8531V12.5557C23.2987 11.3999 21.8032 10.9499 21.1703 11.9152ZM27.1031 51.8657L34.7507 40.2109L42.566 27.5389C43.0441 26.7637 42.492 25.76 41.5875 25.76L26.1422 25.76C25.5055 25.76 24.9895 26.2811 24.9895 26.9238L24.9895 51.223C24.9895 52.3762 26.4723 52.8271 27.1031 51.8657Z" fill="#FFFD63"/>
<path d="M67.4652 37V10.76H73.4421L82.1888 36.0524H80.2208L88.8945 10.76H94.9443V37H91.1176V12.3271H91.7008L83.2456 37H78.9452L70.4901 12.5458H71.0732V37H67.4652ZM99.9497 37V18.4133H103.74V37H99.9497ZM99.7675 14.7689V10.5049H103.959V14.7689H99.7675ZM116.351 37.3644C114.578 37.3644 112.999 36.9514 111.614 36.1253C110.229 35.275 109.135 34.1209 108.334 32.6631C107.556 31.2053 107.167 29.541 107.167 27.6702C107.167 25.7994 107.556 24.1473 108.334 22.7138C109.135 21.256 110.229 20.1141 111.614 19.288C112.999 18.4619 114.566 18.0489 116.315 18.0489C117.797 18.0489 119.121 18.3283 120.287 18.8871C121.454 19.4459 122.413 20.2234 123.167 21.2196C123.92 22.2157 124.406 23.3941 124.624 24.7547H121.053C120.81 23.6613 120.275 22.7867 119.449 22.1307C118.647 21.4747 117.627 21.1467 116.388 21.1467C115.319 21.1467 114.383 21.4139 113.582 21.9484C112.78 22.483 112.16 23.2361 111.723 24.208C111.286 25.1799 111.067 26.3339 111.067 27.6702C111.067 28.9822 111.286 30.1363 111.723 31.1324C112.16 32.1286 112.78 32.9061 113.582 33.4649C114.383 33.9994 115.331 34.2667 116.424 34.2667C117.615 34.2667 118.623 33.9508 119.449 33.3191C120.3 32.6631 120.846 31.7884 121.089 30.6951H124.661C124.418 32.0314 123.908 33.1976 123.13 34.1938C122.377 35.1899 121.417 35.9674 120.251 36.5262C119.085 37.085 117.785 37.3644 116.351 37.3644ZM128.049 37V18.4133H131.657V23.0418H131.839V37H128.049ZM131.839 27.3058L131.365 22.896C131.803 21.3167 132.556 20.1141 133.625 19.288C134.694 18.4619 135.97 18.0489 137.452 18.0489C138.01 18.0489 138.399 18.0975 138.618 18.1947V21.7662C138.496 21.7176 138.326 21.6933 138.108 21.6933C137.889 21.669 137.622 21.6569 137.306 21.6569C135.484 21.6569 134.111 22.1307 133.188 23.0782C132.289 24.0258 131.839 25.435 131.839 27.3058ZM149.62 37.3644C147.725 37.3644 146.06 36.9514 144.627 36.1253C143.193 35.275 142.076 34.1209 141.274 32.6631C140.472 31.181 140.071 29.5046 140.071 27.6338C140.071 25.7387 140.472 24.0744 141.274 22.6409C142.1 21.2074 143.218 20.0898 144.627 19.288C146.06 18.4619 147.725 18.0489 149.62 18.0489C151.539 18.0489 153.216 18.4619 154.649 19.288C156.083 20.0898 157.188 21.2074 157.966 22.6409C158.767 24.0744 159.168 25.7387 159.168 27.6338C159.168 29.5046 158.767 31.181 157.966 32.6631C157.188 34.1209 156.083 35.275 154.649 36.1253C153.216 36.9514 151.539 37.3644 149.62 37.3644ZM149.62 34.2667C150.762 34.2667 151.746 33.9873 152.572 33.4284C153.422 32.8696 154.09 32.0921 154.576 31.096C155.062 30.0999 155.305 28.9336 155.305 27.5973C155.305 25.605 154.771 24.0379 153.702 22.896C152.657 21.7298 151.296 21.1467 149.62 21.1467C147.968 21.1467 146.607 21.7298 145.538 22.896C144.493 24.0622 143.971 25.6293 143.971 27.5973C143.971 28.9336 144.202 30.0999 144.663 31.096C145.149 32.0921 145.817 32.8696 146.668 33.4284C147.542 33.9873 148.526 34.2667 149.62 34.2667Z" fill="white"/>
<path d="M67.4652 78.7593V52.5193H71.3283V78.7593H67.4652ZM76.3178 78.7593V60.1726H79.9258V64.5459H80.108V78.7593H76.3178ZM89.5107 78.7593V66.8055C89.5107 65.5178 89.1827 64.5581 88.5267 63.9264C87.895 63.2947 86.9474 62.9788 85.684 62.9788C84.5907 62.9788 83.6188 63.2218 82.7684 63.7077C81.9424 64.1936 81.2864 64.8618 80.8004 65.7122C80.3388 66.5625 80.108 67.5708 80.108 68.7371L79.6342 64.2908C80.2416 62.9059 81.177 61.8126 82.4404 61.0108C83.7039 60.2091 85.1738 59.8082 86.8502 59.8082C88.8425 59.8082 90.4096 60.367 91.5516 61.4846C92.6935 62.6022 93.2644 64.0843 93.2644 65.9308V78.7593H89.5107ZM105.358 79.1237C103.196 79.1237 101.605 78.6256 100.584 77.6295C99.5879 76.6091 99.0899 75.1148 99.0899 73.1468V55.9086L102.844 54.4873V73.1833C102.844 74.1551 103.099 74.8719 103.609 75.3335C104.119 75.7951 104.945 76.0259 106.087 76.0259C106.525 76.0259 106.913 75.9895 107.253 75.9166C107.594 75.8437 107.885 75.7587 108.128 75.6615V78.7228C107.861 78.8443 107.484 78.9415 106.998 79.0144C106.512 79.0873 105.966 79.1237 105.358 79.1237ZM95.3725 63.1975V60.1726H108.128V63.1975H95.3725ZM118.912 79.1237C117.041 79.1237 115.389 78.7107 113.956 77.8846C112.547 77.0585 111.441 75.9166 110.639 74.4588C109.838 73.0011 109.437 71.3246 109.437 69.4295C109.437 67.5101 109.825 65.8336 110.603 64.4002C111.405 62.9424 112.522 61.8126 113.956 61.0108C115.389 60.2091 117.029 59.8082 118.876 59.8082C120.674 59.8082 122.229 60.1969 123.541 60.9744C124.877 61.7276 125.897 62.7845 126.602 64.1451C127.331 65.5056 127.695 67.1214 127.695 68.9922C127.695 69.2837 127.683 69.5631 127.659 69.8304C127.659 70.0734 127.635 70.3285 127.586 70.5957H111.988V67.7531H124.926L123.978 68.8828C123.978 66.8905 123.529 65.372 122.63 64.3273C121.731 63.2825 120.479 62.7602 118.876 62.7602C117.151 62.7602 115.778 63.3554 114.758 64.5459C113.761 65.7122 113.263 67.34 113.263 69.4295C113.263 71.5433 113.761 73.1954 114.758 74.3859C115.778 75.5765 117.187 76.1717 118.985 76.1717C120.078 76.1717 121.026 75.9531 121.828 75.5157C122.63 75.0541 123.225 74.3859 123.614 73.5113H127.185C126.578 75.2606 125.545 76.6334 124.087 77.6295C122.654 78.6256 120.929 79.1237 118.912 79.1237ZM131.208 78.7593V60.1726H134.816V64.8011H134.998V78.7593H131.208ZM134.998 69.0651L134.524 64.6553C134.962 63.076 135.715 61.8734 136.784 61.0473C137.853 60.2212 139.129 59.8082 140.611 59.8082C141.169 59.8082 141.558 59.8568 141.777 59.9539V63.5255C141.655 63.4769 141.485 63.4526 141.267 63.4526C141.048 63.4283 140.781 63.4162 140.465 63.4162C138.643 63.4162 137.27 63.8899 136.347 64.8375C135.448 65.7851 134.998 67.1942 134.998 69.0651ZM155.742 78.7593C155.62 78.2976 155.535 77.7874 155.487 77.2286C155.462 76.6698 155.45 75.9895 155.45 75.1877H155.268V66.3317C155.268 65.1412 154.964 64.2544 154.357 63.6713C153.774 63.0639 152.838 62.7602 151.551 62.7602C150.312 62.7602 149.316 63.0031 148.562 63.4891C147.833 63.975 147.408 64.6674 147.287 65.5664H143.679C143.849 63.8171 144.638 62.42 146.048 61.3753C147.457 60.3305 149.34 59.8082 151.697 59.8082C154.126 59.8082 155.948 60.3791 157.163 61.5211C158.378 62.6387 158.985 64.2908 158.985 66.4775V75.1877C158.985 75.7465 159.022 76.3175 159.095 76.9006C159.168 77.4837 159.277 78.1033 159.423 78.7593H155.742ZM149.328 79.1237C147.433 79.1237 145.926 78.6621 144.809 77.7388C143.691 76.7913 143.132 75.5157 143.132 73.9122C143.132 72.26 143.715 70.9602 144.881 70.0126C146.072 69.0408 147.773 68.3848 149.984 68.0446L156.106 67.0606V69.7211L150.567 70.5957C149.328 70.7901 148.392 71.1181 147.761 71.5797C147.153 72.0414 146.849 72.7095 146.849 73.5842C146.849 74.4345 147.129 75.0784 147.688 75.5157C148.271 75.9288 149.109 76.1353 150.202 76.1353C151.66 76.1353 152.863 75.783 153.81 75.0784C154.782 74.3738 155.268 73.487 155.268 72.4179L155.742 75.1148C155.305 76.4025 154.527 77.3987 153.409 78.1033C152.292 78.7836 150.931 79.1237 149.328 79.1237ZM171.34 79.1237C169.566 79.1237 167.987 78.7107 166.602 77.8846C165.217 77.0342 164.124 75.8802 163.322 74.4224C162.545 72.9646 162.156 71.3003 162.156 69.4295C162.156 67.5587 162.545 65.9065 163.322 64.4731C164.124 63.0153 165.217 61.8734 166.602 61.0473C167.987 60.2212 169.554 59.8082 171.303 59.8082C172.785 59.8082 174.11 60.0876 175.276 60.6464C176.442 61.2052 177.402 61.9827 178.155 62.9788C178.908 63.975 179.394 65.1534 179.613 66.5139H176.041C175.798 65.4206 175.264 64.5459 174.438 63.8899C173.636 63.2339 172.615 62.9059 171.376 62.9059C170.307 62.9059 169.372 63.1732 168.57 63.7077C167.768 64.2422 167.149 64.9954 166.711 65.9673C166.274 66.9391 166.055 68.0932 166.055 69.4295C166.055 70.7415 166.274 71.8956 166.711 72.8917C167.149 73.8879 167.768 74.6654 168.57 75.2242C169.372 75.7587 170.319 76.0259 171.413 76.0259C172.603 76.0259 173.612 75.7101 174.438 75.0784C175.288 74.4224 175.835 73.5477 176.078 72.4544H179.649C179.406 73.7907 178.896 74.9569 178.118 75.9531C177.365 76.9492 176.406 77.7267 175.239 78.2855C174.073 78.8443 172.773 79.1237 171.34 79.1237ZM190.803 79.1237C188.641 79.1237 187.05 78.6256 186.029 77.6295C185.033 76.6091 184.535 75.1148 184.535 73.1468V55.9086L188.289 54.4873V73.1833C188.289 74.1551 188.544 74.8719 189.054 75.3335C189.564 75.7951 190.39 76.0259 191.532 76.0259C191.97 76.0259 192.358 75.9895 192.699 75.9166C193.039 75.8437 193.33 75.7587 193.573 75.6615V78.7228C193.306 78.8443 192.929 78.9415 192.443 79.0144C191.958 79.0873 191.411 79.1237 190.803 79.1237ZM180.818 63.1975V60.1726H193.573V63.1975H180.818ZM196.731 78.7593V60.1726H200.521V78.7593H196.731ZM196.549 56.5282V52.2642H200.74V56.5282H196.549ZM213.497 79.1237C211.602 79.1237 209.938 78.7107 208.504 77.8846C207.071 77.0342 205.953 75.8802 205.151 74.4224C204.35 72.9403 203.949 71.2639 203.949 69.3931C203.949 67.4979 204.35 65.8336 205.151 64.4002C205.978 62.9667 207.095 61.8491 208.504 61.0473C209.938 60.2212 211.602 59.8082 213.497 59.8082C215.417 59.8082 217.093 60.2212 218.527 61.0473C219.96 61.8491 221.066 62.9667 221.843 64.4002C222.645 65.8336 223.046 67.4979 223.046 69.3931C223.046 71.2639 222.645 72.9403 221.843 74.4224C221.066 75.8802 219.96 77.0342 218.527 77.8846C217.093 78.7107 215.417 79.1237 213.497 79.1237ZM213.497 76.0259C214.639 76.0259 215.623 75.7465 216.449 75.1877C217.3 74.6289 217.968 73.8514 218.454 72.8553C218.94 71.8591 219.183 70.6929 219.183 69.3566C219.183 67.3643 218.648 65.7972 217.579 64.6553C216.534 63.4891 215.174 62.9059 213.497 62.9059C211.845 62.9059 210.484 63.4891 209.415 64.6553C208.371 65.8215 207.848 67.3886 207.848 69.3566C207.848 70.6929 208.079 71.8591 208.541 72.8553C209.027 73.8514 209.695 74.6289 210.545 75.1877C211.42 75.7465 212.404 76.0259 213.497 76.0259ZM226.574 78.7593V60.1726H230.182V64.5459H230.364V78.7593H226.574ZM239.767 78.7593V66.8055C239.767 65.5178 239.439 64.5581 238.783 63.9264C238.151 63.2947 237.204 62.9788 235.94 62.9788C234.847 62.9788 233.875 63.2218 233.025 63.7077C232.199 64.1936 231.543 64.8618 231.057 65.7122C230.595 66.5625 230.364 67.5708 230.364 68.7371L229.891 64.2908C230.498 62.9059 231.433 61.8126 232.697 61.0108C233.96 60.2091 235.43 59.8082 237.107 59.8082C239.099 59.8082 240.666 60.367 241.808 61.4846C242.95 62.6022 243.521 64.0843 243.521 65.9308V78.7593H239.767ZM254.946 79.1237C252.516 79.1237 250.585 78.5892 249.151 77.5202C247.718 76.4511 246.904 74.9448 246.71 73.0011H250.208C250.378 74.0701 250.864 74.8962 251.666 75.4793C252.492 76.0381 253.61 76.3175 255.019 76.3175C256.258 76.3175 257.206 76.0988 257.862 75.6615C258.518 75.2242 258.846 74.6046 258.846 73.8028C258.846 73.2197 258.651 72.7338 258.262 72.3451C257.898 71.932 257.169 71.5919 256.076 71.3246L253.087 70.6322C251.216 70.1705 249.819 69.4902 248.896 68.5913C247.997 67.668 247.548 66.5382 247.548 65.2019C247.548 63.5255 248.167 62.2135 249.406 61.2659C250.67 60.2941 252.395 59.8082 254.582 59.8082C256.744 59.8082 258.481 60.2941 259.793 61.2659C261.129 62.2378 261.883 63.5984 262.053 65.3477H258.554C258.408 64.4731 257.983 63.8049 257.278 63.3433C256.598 62.8574 255.663 62.6144 254.472 62.6144C253.355 62.6144 252.492 62.8209 251.885 63.2339C251.302 63.6227 251.01 64.1694 251.01 64.8739C251.01 65.4571 251.229 65.943 251.666 66.3317C252.128 66.7205 252.881 67.0485 253.926 67.3157L256.987 68.0811C258.76 68.5184 260.097 69.2351 260.996 70.2313C261.895 71.2031 262.344 72.3815 262.344 73.7664C262.344 75.4428 261.688 76.7548 260.376 77.7024C259.088 78.6499 257.278 79.1237 254.946 79.1237Z" fill="white"/>
<rect x="0.611075" y="61.1204" width="47.0741" height="18.9975" rx="5.69444" stroke="#FFFD63" stroke-width="0.759259"/>
<path d="M14.7479 75.1191V65.8719H18.6651C19.333 65.8719 19.9024 65.9832 20.3733 66.2058C20.8442 66.4285 21.2038 66.7453 21.4521 67.1562C21.709 67.5672 21.8374 68.0553 21.8374 68.6204C21.8374 69.1941 21.709 69.6907 21.4521 70.1102C21.2038 70.5212 20.8399 70.8423 20.3605 71.0735C19.8895 71.3047 19.3244 71.4202 18.6651 71.4202H15.7882V70.29H18.6009C19.2088 70.29 19.6712 70.1445 19.988 69.8534C20.3134 69.5622 20.476 69.1555 20.476 68.6332C20.476 68.1024 20.3176 67.6957 20.0008 67.4131C19.684 67.1306 19.2174 66.9893 18.6009 66.9893H16.1093V75.1191H14.7479ZM23.0978 75.1191V68.569H24.3693V70.2001H24.4335V75.1191H23.0978ZM24.4335 71.7028L24.2665 70.1488C24.4207 69.5922 24.6861 69.1684 25.0628 68.8773C25.4396 68.5861 25.8891 68.4406 26.4114 68.4406C26.6083 68.4406 26.7453 68.4577 26.8224 68.492V69.7506C26.7796 69.7335 26.7196 69.7249 26.6426 69.7249C26.5655 69.7164 26.4713 69.7121 26.36 69.7121C25.7178 69.7121 25.2341 69.879 24.9087 70.213C24.5919 70.5469 24.4335 71.0435 24.4335 71.7028ZM30.6996 75.2476C30.0317 75.2476 29.4452 75.102 28.94 74.8109C28.4349 74.5112 28.041 74.1045 27.7584 73.5908C27.4759 73.0685 27.3346 72.4777 27.3346 71.8184C27.3346 71.1505 27.4759 70.564 27.7584 70.0589C28.0496 69.5537 28.4434 69.1598 28.94 68.8773C29.4452 68.5861 30.0317 68.4406 30.6996 68.4406C31.376 68.4406 31.9668 68.5861 32.472 68.8773C32.9771 69.1598 33.3667 69.5537 33.6407 70.0589C33.9233 70.564 34.0645 71.1505 34.0645 71.8184C34.0645 72.4777 33.9233 73.0685 33.6407 73.5908C33.3667 74.1045 32.9771 74.5112 32.472 74.8109C31.9668 75.102 31.376 75.2476 30.6996 75.2476ZM30.6996 74.1559C31.102 74.1559 31.4488 74.0574 31.7399 73.8605C32.0396 73.6636 32.275 73.3896 32.4463 73.0385C32.6175 72.6875 32.7031 72.2765 32.7031 71.8056C32.7031 71.1034 32.5148 70.5512 32.138 70.1488C31.7698 69.7378 31.2904 69.5323 30.6996 69.5323C30.1173 69.5323 29.6378 69.7378 29.2611 70.1488C28.8929 70.5597 28.7088 71.112 28.7088 71.8056C28.7088 72.2765 28.7902 72.6875 28.9529 73.0385C29.1241 73.3896 29.3596 73.6636 29.6593 73.8605C29.9675 74.0574 30.3143 74.1559 30.6996 74.1559Z" fill="#FFFD63"/>
</svg>
