<svg width="113" height="126" viewBox="0 0 113 126" fill="none" xmlns="http://www.w3.org/2000/svg">
<path fill-rule="evenodd" clip-rule="evenodd" d="M110.891 32.4494L110.016 30.8892C108.886 29.0026 107.293 27.4348 105.387 26.3337L63.42 2.1836C61.5196 1.08354 59.3627 0.502435 57.1654 0.498535H55.3519C53.1549 0.502435 50.9977 1.08354 49.0974 2.1836L7.12998 26.3961C5.23484 27.4899 3.66054 29.0606 2.56438 30.9516L1.6887 32.5118C0.586299 34.4077 0.0039 36.56 0 38.7523V87.1149C0.0039 89.307 0.586299 91.4593 1.6887 93.3552L2.56438 94.9155C3.68888 96.7846 5.25668 98.349 7.12998 99.4706L49.16 123.621C51.0505 124.744 53.2142 125.327 55.4146 125.306H57.1654C59.3627 125.302 61.5196 124.721 63.42 123.621L105.387 99.4085C107.301 98.3397 108.882 96.763 109.953 94.8531L110.891 93.2928C111.98 91.3914 112.562 89.2428 112.58 87.0525V38.6897C112.576 36.4976 111.994 34.3453 110.891 32.4494Z" fill="url(#paint0_linear_3826_64)"/>
<path d="M56.5007 14.8345L16.2332 39.2901L57.9764 62.9022V110.97L98.2437 86.5147V39.2901L56.5007 14.8345Z" fill="#EDEDED"/>
<path fill-rule="evenodd" clip-rule="evenodd" d="M102.302 37.182L101.565 35.8643C100.613 34.271 99.2703 32.9469 97.664 32.0168L62.2985 11.6196C60.6969 10.6909 58.8793 10.2 57.0278 10.1966H55.4993C53.6481 10.2 51.8302 10.6909 50.2286 11.6196L14.8631 32.0696C13.2659 32.9931 11.9391 34.3199 11.0154 35.9171L10.2775 37.2348C9.34875 38.8361 8.85787 40.654 8.85449 42.5055V83.3523C8.85787 85.2037 9.34875 87.0214 10.2775 88.623L11.0154 89.9407C11.9631 91.5194 13.2844 92.8404 14.8631 93.7879L50.2813 114.185C51.8746 115.133 53.698 115.626 55.552 115.608H57.0278C58.8793 115.605 60.6969 115.114 62.2985 114.185L97.664 93.7354C99.277 92.8327 100.609 91.5009 101.512 89.8879L102.302 88.57C103.22 86.9642 103.71 85.1494 103.725 83.2997V42.4527C103.722 40.6012 103.231 38.7833 102.302 37.182ZM55.4993 20.7378H57.0278L87.9135 38.5525L56.2899 56.7886L24.6664 38.5525L55.4993 20.7378ZM61.5604 102.432L92.3933 84.6172L93.1839 83.2997V47.6704L61.5604 65.9593V102.432Z" fill="#1B1A1F"/>
<defs>
<linearGradient id="paint0_linear_3826_64" x1="2.10834" y1="34.2304" x2="114.899" y2="65.854" gradientUnits="userSpaceOnUse">
<stop offset="0.233827" stop-color="#F86F4D"/>
<stop offset="0.604167" stop-color="#B853B1"/>
<stop offset="0.958333" stop-color="#533BFA"/>
</linearGradient>
</defs>
</svg>
